<?xml version="1.0" encoding="UTF-8"?>
<svg xmlns="http://www.w3.org/2000/svg" xmlns:xlink="http://www.w3.org/1999/xlink" width="48px" height="48px" viewBox="0 0 48 48" version="1.1">
<g id="surface1">
<path style=" stroke:none;fill-rule:nonzero;fill:rgb(85.882353%,5.098039%,5.098039%);fill-opacity:1;" d="M 25.050781 3.433594 C 24.78125 3.511719 24.480469 3.859375 24.480469 4.085938 C 24.480469 4.183594 24.554688 4.332031 24.652344 4.421875 C 25 4.78125 25.921875 4.574219 26.085938 4.109375 C 26.269531 3.570312 25.75 3.234375 25.050781 3.433594 Z M 25.050781 3.433594 "/>
<path style=" stroke:none;fill-rule:nonzero;fill:rgb(85.882353%,5.098039%,5.098039%);fill-opacity:1;" d="M 4.96875 3.59375 C 4.292969 3.8125 3.832031 4.148438 3.488281 4.675781 C 2.757812 5.8125 2.894531 7.253906 3.820312 8.179688 C 4.511719 8.878906 5.4375 9.078125 6.597656 8.789062 C 7.035156 8.671875 7.226562 8.660156 7.441406 8.710938 C 7.589844 8.742188 7.722656 8.757812 7.734375 8.75 C 7.75 8.734375 7.707031 8.542969 7.640625 8.324219 C 7.507812 7.867188 7.535156 7.167969 7.707031 6.761719 L 7.808594 6.515625 L 6.179688 6.515625 L 6.289062 6.800781 C 6.417969 7.167969 6.4375 8.097656 6.316406 8.449219 C 6.234375 8.695312 6.210938 8.710938 5.925781 8.710938 C 5.113281 8.710938 4.613281 7.996094 4.539062 6.742188 C 4.476562 5.628906 4.785156 4.675781 5.375 4.128906 C 6.179688 3.386719 7.015625 3.777344 7.304688 5.039062 L 7.378906 5.375 L 7.460938 4.726562 C 7.5 4.367188 7.554688 3.976562 7.585938 3.859375 L 7.625 3.648438 L 7.089844 3.609375 C 5.609375 3.503906 5.238281 3.503906 4.96875 3.59375 Z M 4.96875 3.59375 "/>
<path style=" stroke:none;fill-rule:nonzero;fill:rgb(85.882353%,5.098039%,5.098039%);fill-opacity:1;" d="M 20.058594 3.804688 C 20.332031 5.15625 20.324219 7.261719 20.050781 8.621094 L 20.011719 8.847656 L 21.683594 8.847656 L 21.640625 8.652344 C 21.558594 8.25 21.46875 7.550781 21.421875 6.9375 L 21.375 6.308594 L 21.847656 6.308594 C 22.402344 6.308594 22.808594 6.480469 23.101562 6.835938 L 23.300781 7.078125 L 23.300781 5.355469 L 23.089844 5.601562 C 22.78125 5.953125 22.414062 6.101562 21.847656 6.101562 L 21.378906 6.101562 L 21.421875 5.53125 C 21.449219 5.226562 21.503906 4.695312 21.546875 4.367188 L 21.621094 3.757812 L 21.996094 3.804688 C 22.929688 3.921875 23.625 4.414062 23.9375 5.175781 C 24.019531 5.371094 24.027344 5.347656 24.074219 4.792969 C 24.109375 4.464844 24.164062 4.074219 24.199219 3.914062 L 24.261719 3.640625 L 22.132812 3.621094 L 20.011719 3.601562 Z M 20.058594 3.804688 "/>
<path style=" stroke:none;fill-rule:nonzero;fill:rgb(85.882353%,5.098039%,5.098039%);fill-opacity:1;" d="M 9.515625 4.382812 C 9.367188 4.65625 9.257812 4.75 8.90625 4.929688 C 8.660156 5.054688 8.371094 5.144531 8.222656 5.144531 C 7.921875 5.144531 7.824219 5.292969 8.058594 5.402344 C 8.148438 5.445312 8.277344 5.5625 8.339844 5.664062 C 8.515625 5.929688 8.496094 6.796875 8.296875 7.5625 C 8.117188 8.269531 8.167969 8.605469 8.476562 8.8125 C 8.75 8.992188 9.269531 8.960938 9.640625 8.742188 C 10.191406 8.421875 10.457031 7.789062 10.164062 7.523438 C 9.988281 7.363281 9.546875 7.378906 9.277344 7.542969 L 9.050781 7.679688 L 9.1875 7.898438 C 9.546875 8.488281 9.121094 9.03125 8.613281 8.632812 C 8.476562 8.523438 8.433594 8.433594 8.433594 8.234375 C 8.433594 8.015625 8.484375 7.925781 8.730469 7.699219 C 8.886719 7.554688 9.167969 7.371094 9.347656 7.296875 L 9.675781 7.167969 L 9.628906 6.5 C 9.609375 6.136719 9.609375 5.726562 9.628906 5.59375 C 9.675781 5.355469 9.683594 5.347656 9.984375 5.347656 C 10.175781 5.347656 10.277344 5.320312 10.25 5.28125 C 10.230469 5.238281 10.085938 5.210938 9.9375 5.210938 C 9.609375 5.210938 9.609375 5.230469 9.839844 4.195312 C 9.902344 3.921875 9.710938 4.03125 9.515625 4.382812 Z M 9.515625 4.382812 "/>
<path style=" stroke:none;fill-rule:nonzero;fill:rgb(85.882353%,5.098039%,5.098039%);fill-opacity:1;" d="M 12.789062 5.191406 C 12.480469 5.347656 12.351562 5.484375 12.125 5.863281 C 11.898438 6.238281 11.90625 6.253906 12.042969 5.464844 L 12.082031 5.210938 L 11.3125 5.210938 C 10.621094 5.210938 10.550781 5.226562 10.589844 5.328125 C 10.871094 6.246094 10.871094 9.140625 10.582031 10.265625 C 10.546875 10.421875 10.550781 10.421875 11.308594 10.421875 C 11.726562 10.421875 12.070312 10.394531 12.070312 10.367188 C 12.070312 10.332031 12.019531 10.003906 11.964844 9.628906 C 11.910156 9.257812 11.863281 8.886719 11.863281 8.816406 C 11.863281 8.695312 11.871094 8.695312 12 8.8125 C 12.207031 8.996094 12.863281 8.929688 13.234375 8.679688 C 13.597656 8.441406 14.011719 7.804688 14.160156 7.242188 C 14.390625 6.382812 14.195312 5.472656 13.714844 5.191406 C 13.472656 5.046875 13.054688 5.046875 12.789062 5.191406 Z M 12.953125 5.753906 C 13.136719 5.9375 13.191406 6.40625 13.105469 6.988281 C 12.953125 7.960938 12.582031 8.640625 12.199219 8.640625 C 11.898438 8.640625 11.84375 8.460938 11.875 7.542969 C 11.90625 6.800781 11.925781 6.699219 12.128906 6.28125 C 12.269531 6 12.425781 5.789062 12.535156 5.726562 C 12.773438 5.59375 12.800781 5.601562 12.953125 5.753906 Z M 12.953125 5.753906 "/>
<path style=" stroke:none;fill-rule:nonzero;fill:rgb(85.882353%,5.098039%,5.098039%);fill-opacity:1;" d="M 15.511719 5.203125 C 14.765625 5.457031 14.503906 5.972656 14.804688 6.574219 C 14.960938 6.871094 15.09375 6.972656 15.902344 7.40625 C 16.582031 7.769531 16.765625 7.972656 16.695312 8.296875 C 16.636719 8.566406 16.300781 8.796875 16.046875 8.742188 C 15.621094 8.640625 15.394531 8.117188 15.660156 7.824219 C 15.769531 7.699219 15.765625 7.6875 15.476562 7.550781 C 14.894531 7.269531 14.414062 7.449219 14.488281 7.925781 C 14.578125 8.488281 15.160156 8.859375 16.019531 8.902344 C 16.695312 8.933594 17.164062 8.804688 17.472656 8.484375 C 17.835938 8.105469 17.917969 7.714844 17.710938 7.289062 C 17.554688 6.953125 17.167969 6.699219 16.445312 6.4375 C 15.691406 6.171875 15.550781 6.011719 15.722656 5.65625 C 15.882812 5.335938 16.128906 5.183594 16.367188 5.257812 C 16.613281 5.34375 16.640625 5.5 16.457031 5.746094 C 16.191406 6.101562 16.492188 6.375 17.054688 6.289062 C 17.792969 6.164062 17.8125 5.394531 17.082031 5.152344 C 16.730469 5.03125 15.929688 5.0625 15.511719 5.203125 Z M 15.511719 5.203125 "/>
<path style=" stroke:none;fill-rule:nonzero;fill:rgb(85.882353%,5.098039%,5.098039%);fill-opacity:1;" d="M 28.765625 5.238281 C 28.320312 5.507812 28.050781 5.945312 27.839844 6.742188 L 27.710938 7.234375 L 27.746094 6.789062 C 27.785156 6.351562 27.882812 5.671875 27.957031 5.363281 C 27.988281 5.210938 27.984375 5.210938 27.230469 5.210938 C 26.476562 5.210938 26.46875 5.210938 26.503906 5.363281 C 26.734375 6.410156 26.777344 7.03125 26.648438 7.851562 C 26.585938 8.230469 26.523438 8.605469 26.496094 8.6875 C 26.453125 8.847656 26.453125 8.847656 27.214844 8.847656 L 27.984375 8.847656 L 27.9375 8.207031 C 27.910156 7.835938 27.921875 7.363281 27.96875 7.0625 C 28.058594 6.445312 28.402344 5.730469 28.683594 5.570312 C 28.871094 5.457031 28.882812 5.457031 28.976562 5.582031 C 29.121094 5.78125 29.09375 6.292969 28.902344 7.144531 C 28.78125 7.652344 28.730469 8.050781 28.746094 8.359375 L 28.765625 8.8125 L 29.53125 8.832031 L 30.300781 8.851562 L 30.164062 8.535156 C 29.925781 8.003906 29.882812 7.5 30 6.679688 C 30.101562 5.953125 30.09375 5.851562 29.953125 5.464844 C 29.800781 5.066406 29.230469 4.957031 28.765625 5.238281 Z M 28.765625 5.238281 "/>
<path style=" stroke:none;fill-rule:nonzero;fill:rgb(85.882353%,5.098039%,5.098039%);fill-opacity:1;" d="M 31.652344 5.183594 C 30.769531 5.507812 30.582031 6.238281 31.386719 6.238281 C 31.632812 6.238281 31.730469 6.199219 31.890625 6.042969 C 32.003906 5.925781 32.089844 5.765625 32.089844 5.671875 C 32.089844 5.574219 32.152344 5.429688 32.222656 5.34375 L 32.351562 5.175781 L 32.550781 5.320312 C 32.816406 5.519531 32.949219 5.9375 32.847656 6.300781 C 32.769531 6.582031 32.769531 6.582031 32.585938 6.488281 C 31.625 6.007812 30.375 6.769531 30.375 7.835938 C 30.375 8.488281 30.769531 8.914062 31.371094 8.914062 C 31.730469 8.914062 31.980469 8.804688 32.230469 8.535156 L 32.398438 8.351562 L 32.433594 8.585938 L 32.46875 8.8125 L 33.234375 8.832031 L 34.011719 8.851562 L 33.875 8.542969 C 33.65625 8.015625 33.59375 7.515625 33.675781 6.855469 C 33.792969 5.945312 33.609375 5.464844 33.023438 5.203125 C 32.6875 5.054688 32.035156 5.039062 31.652344 5.183594 Z M 32.441406 6.652344 C 32.695312 6.789062 32.566406 7.753906 32.234375 8.222656 C 31.933594 8.640625 31.542969 8.40625 31.542969 7.816406 C 31.542969 7.425781 31.828125 6.824219 32.078125 6.6875 C 32.304688 6.570312 32.277344 6.570312 32.441406 6.652344 Z M 32.441406 6.652344 "/>
<path style=" stroke:none;fill-rule:nonzero;fill:rgb(85.882353%,5.098039%,5.098039%);fill-opacity:1;" d="M 36.582031 5.238281 C 36.136719 5.507812 35.871094 5.945312 35.65625 6.742188 L 35.527344 7.234375 L 35.5625 6.789062 C 35.601562 6.351562 35.699219 5.671875 35.773438 5.363281 C 35.808594 5.210938 35.800781 5.210938 35.039062 5.210938 C 34.347656 5.210938 34.277344 5.226562 34.3125 5.328125 C 34.582031 6.289062 34.589844 7.589844 34.320312 8.660156 L 34.269531 8.847656 L 35.800781 8.847656 L 35.753906 8.207031 C 35.726562 7.835938 35.738281 7.363281 35.789062 7.0625 C 35.875 6.445312 36.21875 5.730469 36.5 5.570312 C 36.6875 5.457031 36.699219 5.457031 36.796875 5.582031 C 36.9375 5.78125 36.910156 6.316406 36.71875 7.128906 C 36.625 7.542969 36.550781 8.0625 36.550781 8.34375 L 36.550781 8.847656 L 38.117188 8.847656 L 37.980469 8.535156 C 37.742188 7.996094 37.691406 7.472656 37.816406 6.652344 C 37.878906 6.253906 37.90625 5.863281 37.878906 5.789062 C 37.75 5.382812 37.671875 5.265625 37.5 5.175781 C 37.21875 5.027344 36.898438 5.054688 36.582031 5.238281 Z M 36.582031 5.238281 "/>
<path style=" stroke:none;fill-rule:nonzero;fill:rgb(85.882353%,5.098039%,5.098039%);fill-opacity:1;" d="M 39.613281 5.167969 C 38.96875 5.402344 38.535156 5.90625 38.390625 6.570312 C 38.1875 7.570312 38.605469 8.453125 39.449219 8.8125 C 39.777344 8.949219 40.46875 8.941406 40.75 8.804688 C 41.445312 8.453125 41.746094 7.742188 41.320312 7.460938 C 41.175781 7.359375 40.78125 7.40625 40.527344 7.550781 L 40.265625 7.691406 L 40.429688 7.941406 C 40.636719 8.242188 40.648438 8.605469 40.449219 8.710938 C 40.222656 8.832031 39.839844 8.589844 39.648438 8.207031 C 39.328125 7.585938 39.386719 6.460938 39.777344 5.773438 C 40.085938 5.226562 40.59375 5.046875 40.59375 5.484375 C 40.59375 5.589844 40.53125 5.753906 40.457031 5.851562 C 40.292969 6.0625 40.277344 6.261719 40.4375 6.410156 C 40.527344 6.5 40.628906 6.519531 40.894531 6.492188 C 41.167969 6.472656 41.273438 6.417969 41.429688 6.246094 C 41.648438 6 41.664062 5.90625 41.511719 5.617188 C 41.289062 5.164062 40.285156 4.929688 39.613281 5.167969 Z M 39.613281 5.167969 "/>
<path style=" stroke:none;fill-rule:nonzero;fill:rgb(85.882353%,5.098039%,5.098039%);fill-opacity:1;" d="M 43.109375 5.167969 C 42.398438 5.429688 41.90625 6.109375 41.84375 6.933594 C 41.761719 8.078125 42.492188 8.914062 43.597656 8.914062 C 44.105469 8.914062 44.449219 8.765625 44.765625 8.398438 C 44.929688 8.214844 44.984375 8.089844 44.984375 7.890625 C 44.984375 7.410156 44.566406 7.269531 44.015625 7.542969 L 43.742188 7.6875 L 43.886719 7.886719 C 44.089844 8.171875 44.148438 8.566406 43.996094 8.679688 C 43.867188 8.769531 43.542969 8.714844 43.359375 8.566406 C 43.214844 8.441406 43.015625 8.023438 42.960938 7.742188 L 42.910156 7.496094 L 43.316406 7.410156 C 44.140625 7.253906 44.90625 6.742188 45.023438 6.269531 C 45.085938 6.019531 45.007812 5.628906 44.867188 5.464844 C 44.542969 5.109375 43.691406 4.964844 43.109375 5.167969 Z M 43.988281 5.328125 C 44.167969 5.5 44.089844 6.128906 43.84375 6.582031 C 43.644531 6.953125 43.269531 7.269531 43.035156 7.269531 C 42.917969 7.269531 42.910156 7.226562 42.945312 6.835938 C 43.007812 6.234375 43.179688 5.789062 43.472656 5.480469 C 43.753906 5.175781 43.824219 5.164062 43.988281 5.328125 Z M 43.988281 5.328125 "/>
<path style=" stroke:none;fill-rule:nonzero;fill:rgb(85.882353%,5.098039%,5.098039%);fill-opacity:1;" d="M 24.550781 5.226562 C 24.550781 5.238281 24.597656 5.484375 24.652344 5.78125 C 24.707031 6.074219 24.753906 6.625 24.753906 6.992188 C 24.753906 7.363281 24.707031 7.914062 24.652344 8.207031 C 24.597656 8.503906 24.550781 8.765625 24.550781 8.789062 C 24.550781 8.824219 24.890625 8.847656 25.3125 8.847656 C 26.070312 8.847656 26.070312 8.847656 26.03125 8.6875 C 26.003906 8.605469 25.941406 8.230469 25.878906 7.851562 C 25.75 7.023438 25.78125 6.429688 26.023438 5.363281 C 26.058594 5.210938 26.050781 5.210938 25.304688 5.210938 C 24.890625 5.210938 24.550781 5.21875 24.550781 5.226562 Z M 24.550781 5.226562 "/>
<path style=" stroke:none;fill-rule:nonzero;fill:rgb(85.882353%,5.098039%,5.098039%);fill-opacity:1;" d="M 18.605469 8.058594 C 18.246094 8.207031 18.128906 8.585938 18.363281 8.796875 C 18.445312 8.871094 18.609375 8.914062 18.816406 8.914062 C 19.082031 8.914062 19.179688 8.878906 19.34375 8.714844 C 19.589844 8.46875 19.597656 8.285156 19.363281 8.097656 C 19.152344 7.933594 18.910156 7.921875 18.605469 8.058594 Z M 18.605469 8.058594 "/>
<path style=" stroke:none;fill-rule:nonzero;fill:rgb(85.882353%,5.098039%,5.098039%);fill-opacity:1;" d="M 15.148438 10.621094 C 14.796875 10.730469 14.566406 10.957031 12.871094 12.824219 C 11.929688 13.859375 10.984375 14.894531 10.773438 15.128906 C 10.558594 15.351562 10.265625 15.675781 10.113281 15.847656 C 9.347656 16.695312 7.714844 18.492188 7.128906 19.128906 C 6.164062 20.179688 6.070312 20.351562 6.070312 20.941406 C 6.074219 21.515625 6.117188 21.609375 6.953125 22.800781 C 7.269531 23.25 7.859375 24.101562 8.261719 24.6875 C 8.660156 25.269531 9.234375 26.105469 9.539062 26.535156 C 9.839844 26.96875 10.265625 27.585938 10.484375 27.910156 C 10.703125 28.230469 11.21875 28.976562 11.628906 29.570312 C 12.042969 30.164062 12.699219 31.117188 13.097656 31.691406 C 13.496094 32.269531 13.988281 32.984375 14.203125 33.289062 C 14.40625 33.59375 14.8125 34.175781 15.097656 34.59375 C 15.378906 35.007812 15.851562 35.683594 16.132812 36.101562 C 16.421875 36.515625 16.882812 37.179688 17.15625 37.578125 C 17.425781 37.972656 17.746094 38.433594 17.863281 38.605469 C 17.980469 38.777344 18.324219 39.269531 18.617188 39.703125 C 18.917969 40.132812 19.460938 40.921875 19.828125 41.449219 C 20.195312 41.980469 20.621094 42.597656 20.777344 42.824219 C 22.539062 45.386719 22.511719 45.351562 22.902344 45.546875 C 23.375 45.792969 23.828125 45.796875 24.308594 45.570312 C 24.710938 45.378906 24.796875 45.296875 25.40625 44.398438 C 25.667969 44.023438 25.980469 43.554688 26.117188 43.371094 C 26.378906 43 27.070312 42 27.691406 41.089844 C 27.902344 40.78125 28.671875 39.675781 29.382812 38.640625 C 30.101562 37.605469 31.03125 36.261719 31.441406 35.65625 C 31.859375 35.054688 32.496094 34.121094 32.867188 33.585938 C 33.234375 33.050781 33.839844 32.179688 34.203125 31.652344 C 34.566406 31.117188 34.949219 30.5625 35.0625 30.410156 C 35.167969 30.261719 35.601562 29.636719 36.019531 29.027344 C 37.34375 27.105469 38.714844 25.117188 39.820312 23.519531 C 41.230469 21.484375 41.230469 21.484375 41.191406 20.871094 C 41.167969 20.503906 41.121094 20.324219 41.007812 20.152344 C 40.863281 19.949219 39.929688 18.855469 39.746094 18.6875 C 39.703125 18.644531 39.214844 18.117188 38.660156 17.5 C 38.097656 16.890625 37.191406 15.890625 36.636719 15.277344 C 36.074219 14.660156 35.59375 14.125 35.554688 14.085938 C 35.519531 14.042969 35.363281 13.871094 35.210938 13.707031 C 35.0625 13.542969 34.457031 12.878906 33.875 12.238281 C 33.296875 11.59375 32.667969 10.964844 32.484375 10.832031 L 32.148438 10.59375 L 23.738281 10.582031 C 19.109375 10.574219 15.242188 10.59375 15.148438 10.621094 Z M 31.054688 13.898438 C 31.167969 14.011719 31.886719 14.785156 32.652344 15.632812 C 33.414062 16.492188 34.820312 18.035156 35.761719 19.0625 C 36.707031 20.097656 37.5 20.984375 37.53125 21.03125 C 37.554688 21.070312 37.550781 21.128906 37.523438 21.148438 C 37.472656 21.175781 36.351562 20.003906 35.570312 19.105469 C 35.5 19.023438 35.328125 18.835938 35.191406 18.6875 C 35.046875 18.535156 34.308594 17.71875 33.539062 16.871094 C 32.769531 16.019531 31.933594 15.113281 31.6875 14.859375 C 30.910156 14.058594 31.707031 14.125 23.625 14.125 C 16.902344 14.125 16.59375 14.132812 16.308594 14.253906 C 15.96875 14.398438 15.546875 14.824219 13.609375 16.96875 C 11.917969 18.847656 11.835938 18.9375 11.34375 19.46875 C 11.109375 19.714844 10.671875 20.207031 10.355469 20.550781 C 10.046875 20.902344 9.757812 21.167969 9.722656 21.148438 C 9.691406 21.121094 9.714844 21.039062 9.792969 20.953125 C 9.859375 20.878906 10.300781 20.390625 10.765625 19.886719 C 11.230469 19.378906 11.71875 18.835938 11.855469 18.6875 C 11.992188 18.535156 12.582031 17.882812 13.167969 17.246094 C 13.75 16.601562 14.339844 15.957031 14.476562 15.804688 C 14.605469 15.65625 15.097656 15.121094 15.566406 14.621094 L 16.410156 13.714844 L 30.855469 13.714844 Z M 30.410156 17.464844 C 30.707031 17.800781 31.128906 18.273438 31.363281 18.519531 C 31.949219 19.144531 32.152344 19.371094 33.703125 21.085938 C 34.449219 21.914062 35.167969 22.710938 35.300781 22.847656 L 35.539062 23.101562 L 35.289062 23.484375 C 35.152344 23.699219 35.007812 23.863281 34.976562 23.851562 C 34.949219 23.835938 34.300781 23.136719 33.53125 22.285156 C 32.011719 20.605469 31.632812 20.203125 31.46875 20.03125 C 31.410156 19.96875 30.953125 19.460938 30.445312 18.90625 C 29.910156 18.316406 29.417969 17.828125 29.265625 17.753906 C 29.019531 17.628906 28.792969 17.625 23.609375 17.625 C 18.664062 17.628906 18.1875 17.636719 17.964844 17.746094 C 17.820312 17.8125 17.011719 18.652344 15.890625 19.886719 C 14.871094 20.996094 13.804688 22.171875 13.515625 22.492188 C 13.21875 22.8125 12.832031 23.246094 12.644531 23.464844 C 12.460938 23.675781 12.28125 23.84375 12.238281 23.835938 C 12.128906 23.808594 11.710938 23.167969 11.753906 23.089844 C 11.765625 23.039062 12.351562 22.390625 13.042969 21.628906 C 13.734375 20.867188 14.542969 19.972656 14.847656 19.640625 C 15.148438 19.3125 15.628906 18.78125 15.910156 18.480469 C 16.191406 18.179688 16.636719 17.691406 16.894531 17.394531 L 17.371094 16.871094 L 29.875 16.871094 Z M 26.960938 20.109375 C 27.75 20.386719 27.265625 20.433594 23.664062 20.433594 C 21.859375 20.433594 20.285156 20.414062 20.167969 20.390625 C 19.933594 20.34375 19.886719 20.242188 20.078125 20.1875 C 20.140625 20.167969 20.242188 20.125 20.296875 20.089844 C 20.351562 20.058594 21.820312 20.03125 23.554688 20.03125 C 25.96875 20.023438 26.769531 20.042969 26.960938 20.109375 Z M 17.992188 21.167969 C 18.019531 21.203125 18.191406 21.257812 18.363281 21.304688 C 19.441406 21.578125 19.351562 21.539062 19.316406 21.765625 C 19.304688 21.882812 19.21875 22.148438 19.136719 22.355469 C 19.054688 22.558594 18.910156 22.964844 18.816406 23.246094 C 18.710938 23.527344 18.609375 23.789062 18.574219 23.820312 C 18.550781 23.855469 18.28125 23.789062 17.953125 23.664062 C 17.636719 23.539062 17.273438 23.402344 17.144531 23.347656 C 16.863281 23.246094 16.355469 23.054688 16.128906 22.964844 C 15.976562 22.902344 16.011719 22.855469 16.773438 22.011719 C 17.425781 21.289062 17.609375 21.121094 17.761719 21.121094 C 17.863281 21.121094 17.964844 21.140625 17.992188 21.167969 Z M 29.8125 21.285156 C 29.925781 21.429688 30.953125 22.574219 31.1875 22.808594 C 31.3125 22.9375 31.289062 23.019531 31.117188 23.0625 C 31.03125 23.082031 30.515625 23.257812 29.964844 23.449219 C 28.566406 23.953125 28.710938 23.957031 28.5 23.402344 C 28.402344 23.144531 28.320312 22.917969 28.320312 22.890625 C 28.320312 22.863281 28.285156 22.757812 28.238281 22.648438 C 28.066406 22.222656 27.914062 21.765625 27.910156 21.660156 C 27.910156 21.59375 28.011719 21.53125 28.203125 21.484375 C 28.359375 21.441406 28.671875 21.359375 28.890625 21.304688 C 29.109375 21.25 29.308594 21.1875 29.328125 21.160156 C 29.425781 21.066406 29.691406 21.132812 29.8125 21.285156 Z M 23.246094 22.871094 L 23.246094 24 L 21.386719 24 C 19.925781 24 19.535156 23.980469 19.5625 23.910156 C 19.578125 23.871094 19.734375 23.425781 19.914062 22.9375 C 20.089844 22.445312 20.261719 21.976562 20.296875 21.890625 C 20.367188 21.738281 20.371094 21.738281 21.804688 21.738281 L 23.246094 21.738281 Z M 27.070312 22.195312 C 27.160156 22.457031 27.265625 22.726562 27.289062 22.800781 C 27.359375 22.945312 27.703125 23.9375 27.703125 23.980469 C 27.703125 23.992188 26.878906 23.992188 25.871094 23.988281 L 24.035156 23.964844 L 24.011719 22.847656 L 24 21.738281 L 26.914062 21.738281 Z M 17.402344 24.808594 L 18.460938 25.207031 L 18.597656 25.542969 C 18.671875 25.734375 18.761719 25.949219 18.789062 26.023438 C 18.824219 26.097656 18.871094 26.234375 18.890625 26.332031 C 18.917969 26.429688 18.980469 26.589844 19.03125 26.710938 C 19.296875 27.328125 20.515625 30.726562 20.488281 30.761719 C 20.46875 30.773438 20.339844 30.628906 20.195312 30.429688 C 20.050781 30.234375 19.609375 29.636719 19.21875 29.109375 C 18.542969 28.191406 16.863281 25.921875 16.03125 24.796875 C 15.8125 24.5 15.632812 24.234375 15.632812 24.207031 C 15.632812 24.171875 15.796875 24.207031 15.996094 24.28125 C 16.191406 24.355469 16.828125 24.597656 17.402344 24.808594 Z M 31.242188 24.78125 C 30.136719 26.277344 29.382812 27.296875 28.148438 28.964844 C 26.886719 30.664062 26.578125 31.007812 26.832031 30.429688 C 26.886719 30.308594 27.015625 29.972656 27.121094 29.691406 C 27.222656 29.410156 27.367188 29.019531 27.441406 28.832031 C 27.515625 28.640625 27.609375 28.394531 27.640625 28.285156 C 27.675781 28.171875 27.730469 28.019531 27.765625 27.941406 C 27.796875 27.867188 28.03125 27.234375 28.292969 26.535156 C 28.546875 25.835938 28.757812 25.261719 28.765625 25.25 C 28.773438 25.242188 29.101562 25.125 29.492188 24.988281 C 29.882812 24.847656 30.253906 24.726562 30.308594 24.707031 C 30.582031 24.597656 31.515625 24.28125 31.5625 24.273438 C 31.589844 24.273438 31.449219 24.5 31.242188 24.78125 Z M 23.246094 30.207031 C 23.246094 32.867188 23.226562 35.039062 23.199219 35.039062 C 23.164062 35.039062 22.957031 34.546875 22.730469 33.9375 C 22.503906 33.332031 22.269531 32.710938 22.210938 32.550781 C 22.148438 32.390625 22.011719 32.03125 21.910156 31.75 C 21.804688 31.46875 21.683594 31.136719 21.628906 31.015625 C 21.570312 30.898438 21.53125 30.769531 21.53125 30.726562 C 21.53125 30.6875 21.503906 30.597656 21.464844 30.527344 C 21.429688 30.46875 21.039062 29.4375 20.597656 28.25 C 20.167969 27.066406 19.75 25.949219 19.671875 25.769531 C 19.605469 25.589844 19.542969 25.433594 19.542969 25.410156 C 19.542969 25.390625 20.378906 25.371094 21.394531 25.371094 L 23.246094 25.371094 Z M 27.703125 25.40625 C 27.703125 25.453125 24.5625 33.882812 24.453125 34.113281 C 24.40625 34.222656 24.300781 34.484375 24.234375 34.675781 C 24.164062 34.875 24.082031 35.039062 24.054688 35.039062 C 24.027344 35.039062 24 32.867188 24 30.207031 L 24 25.371094 L 25.851562 25.371094 C 26.871094 25.371094 27.703125 25.386719 27.703125 25.40625 Z M 15.804688 26.324219 C 15.765625 26.359375 15.632812 26.253906 15.632812 26.1875 C 15.632812 26.152344 15.675781 26.160156 15.730469 26.207031 C 15.785156 26.253906 15.8125 26.308594 15.804688 26.324219 Z M 19.289062 31.015625 C 19.449219 31.234375 20.390625 32.515625 21.394531 33.859375 C 22.394531 35.210938 23.289062 36.429688 23.382812 36.570312 C 23.480469 36.707031 23.589844 36.824219 23.625 36.824219 C 23.664062 36.816406 23.890625 36.542969 24.136719 36.207031 C 24.382812 35.871094 24.910156 35.152344 25.3125 34.613281 C 27.203125 32.058594 28.328125 30.535156 28.414062 30.410156 C 28.46875 30.335938 28.855469 29.820312 29.257812 29.265625 C 29.671875 28.71875 30.070312 28.183594 30.144531 28.078125 C 30.324219 27.832031 30.734375 27.269531 30.800781 27.1875 C 31.191406 26.710938 31.269531 26.710938 30.910156 27.1875 C 30.789062 27.351562 30.351562 27.984375 29.929688 28.59375 C 29.519531 29.203125 29.066406 29.851562 28.9375 30.035156 C 28.808594 30.21875 28.566406 30.5625 28.402344 30.800781 C 26.96875 32.894531 26.894531 32.996094 25.925781 34.390625 C 25.5625 34.917969 24.953125 35.792969 24.582031 36.34375 C 24.207031 36.890625 23.835938 37.433594 23.753906 37.535156 L 23.609375 37.734375 L 23.101562 37 C 22.820312 36.597656 22.457031 36.070312 22.285156 35.828125 C 22.113281 35.589844 21.640625 34.894531 21.222656 34.285156 C 20.8125 33.683594 20.023438 32.535156 19.472656 31.75 C 16.683594 27.714844 15.839844 26.484375 15.839844 26.414062 C 15.839844 26.378906 18.445312 29.851562 19.289062 31.015625 Z M 19.289062 31.015625 "/>
</g>
</svg>
